<svg width="1440" height="320" xmlns="http://www.w3.org/2000/svg">

 <g>
  <title>background</title>
  <rect fill="none" id="canvas_background" height="602" width="802" y="-1" x="-1"/>
 </g>
 <g>
  <title>Layer 1</title>
  <path stroke="null" id="svg_1" d="m0,261.35343l48,-27.80412c48,-27.38757 144,-83.62062 240,-77.68491c96,5.51917 192,72.16574 288,66.64657c96,-5.93571 192,-82.9958 288,-94.45068c96,-11.45488 192,44.77816 288,72.16574c96,27.80412 192,27.80412 240,27.80412l48,0l0,99.96985l-48,0c-48,0 -144,0 -240,0c-96,0 -192,0 -288,0c-96,0 -192,0 -288,0c-96,0 -192,0 -288,0c-96,0 -192,0 -240,0l-48,0l0,-66.64657z" fill="#fff"/>
 </g>
</svg>